<?xml version="1.0" encoding="UTF-8"?><svg id="a" xmlns="http://www.w3.org/2000/svg" width="10.58mm" height="10.32mm" viewBox="0 0 29.99 29.25"><defs><style>.b{fill-rule:evenodd;}</style></defs><path class="b" d="M15,0C6.71,0,0,6.71,0,15c0,6.63,4.3,12.25,10.26,14.23,.75,.14,.99-.31,.99-.71,0-.36,0-1.35,0-2.6-4.17,.91-5.04-1.98-5.04-1.98-.68-1.73-1.66-2.19-1.66-2.19-1.36-.93,.1-.91,.1-.91,1.5,.11,2.3,1.55,2.3,1.55,1.34,2.29,3.51,1.63,4.36,1.25,.14-.97,.53-1.63,.95-2.01-3.33-.38-6.83-1.67-6.83-7.41,0-1.64,.58-2.98,1.54-4.02-.15-.38-.67-1.9,.15-3.97,0,0,1.26-.4,4.12,1.54,1.2-.33,2.48-.5,3.75-.5,1.27,0,2.56,.17,3.75,.5,2.86-1.94,4.12-1.54,4.12-1.54,.82,2.07,.3,3.59,.15,3.97,.96,1.05,1.54,2.39,1.54,4.02,0,5.76-3.51,7.03-6.85,7.4,.54,.46,1.03,1.36,1.03,2.76v4.15c0,.4,.24,.84,1,.7,5.96-1.99,10.25-7.6,10.25-14.23C29.99,6.71,23.28,0,15,0Z"/></svg>