<?xml version="1.0" encoding="UTF-8"?>
<svg id="Layer_1" data-name="Layer 1" xmlns="http://www.w3.org/2000/svg" xmlns:xlink="http://www.w3.org/1999/xlink" viewBox="0 0 281.5 124.3">
  <defs>
    <style>
      .cls-1 {
        fill: url(#linear-gradient);
      }

      .cls-2 {
        fill: #363636;
      }

      .cls-3 {
        fill: url(#linear-gradient-3);
      }

      .cls-4 {
        fill: url(#linear-gradient-2);
      }
    </style>
    <linearGradient id="linear-gradient" x1="145.04" y1="62.86" x2="193.45" y2="62.86" gradientUnits="userSpaceOnUse">
      <stop offset="0" stop-color="#8b38ff"/>
      <stop offset="1" stop-color="#bc65f7"/>
    </linearGradient>
    <linearGradient id="linear-gradient-2" x1="145.04" y1="62.72" x2="193.45" y2="62.72" xlink:href="#linear-gradient"/>
    <linearGradient id="linear-gradient-3" x1="145.04" y1="60.66" x2="193.45" y2="60.66" xlink:href="#linear-gradient"/>
  </defs>
  <g>
    <path class="cls-1" d="M161.6,62.95c0-1.09,.17-2.05,.5-2.86,.33-.82,.78-1.5,1.32-2.05,.55-.55,1.17-.96,1.88-1.24,.71-.28,1.44-.42,2.19-.42,1.75,0,3.12,.53,4.14,1.6,1.01,1.07,1.52,2.64,1.52,4.71,0,.2,0,.42-.02,.67-.02,.24-.03,.46-.05,.64h-7.9c.08,.72,.41,1.29,1.01,1.71,.59,.42,1.39,.63,2.38,.63,.64,0,1.27-.06,1.88-.18,.62-.12,1.12-.26,1.51-.43l.47,2.83c-.19,.09-.44,.19-.75,.28-.31,.09-.66,.18-1.04,.25-.38,.07-.79,.13-1.23,.18-.44,.05-.87,.07-1.31,.07-1.11,0-2.07-.16-2.89-.49-.82-.33-1.5-.78-2.03-1.34-.54-.57-.94-1.24-1.19-2.02-.26-.78-.39-1.62-.39-2.52Zm8.18-1.33c-.02-.3-.07-.58-.15-.87-.09-.28-.22-.53-.4-.75-.18-.22-.41-.4-.68-.54-.27-.14-.61-.21-1.02-.21s-.72,.07-1.01,.2c-.28,.13-.51,.31-.7,.53-.19,.22-.33,.47-.43,.76-.1,.29-.18,.58-.22,.88h4.61Z"/>
    <path class="cls-4" d="M175,57.13c.59-.17,1.36-.33,2.29-.48,.94-.15,1.92-.22,2.95-.22s1.91,.14,2.61,.41c.69,.27,1.24,.66,1.65,1.16,.41,.5,.69,1.09,.87,1.78,.17,.69,.26,1.45,.26,2.29v6.94h-3.48v-6.52c0-1.12-.15-1.92-.44-2.38-.3-.47-.85-.7-1.66-.7-.25,0-.51,.01-.79,.04-.28,.02-.53,.05-.75,.08v9.49h-3.48v-11.88Z"/>
    <path class="cls-3" d="M154.53,55.27c-1.74,0-3,.48-3.78,1.45-.78,.97-1.16,2.29-1.16,3.97,0,.81,.1,1.55,.29,2.22s.48,1.23,.86,1.71,.86,.85,1.44,1.11,1.25,.4,2.01,.4c.42,0,.77,0,1.07-.02,.3-.02,.56-.05,.78-.1v-5.78h3.74v8.22c-.45,.18-1.17,.36-2.16,.56-.99,.2-2.21,.3-3.67,.3-1.25,0-2.38-.19-3.39-.58-1.02-.38-1.88-.94-2.6-1.68-.72-.73-1.27-1.64-1.67-2.71-.39-1.07-.59-2.29-.59-3.67s.22-2.62,.65-3.69,1.02-1.98,1.77-2.72c.75-.74,1.63-1.31,2.65-1.69,1.01-.38,2.1-.58,3.25-.58,.78,0,1.49,.05,2.12,.16,.63,.1,1.17,.22,1.63,.36,.46,.14,.83,.28,1.13,.42,.3,.14,.51,.26,.64,.34l-1.08,3c-.51-.27-1.1-.51-1.76-.71s-1.39-.3-2.17-.3Z"/>
  </g>
  <g>
    <path class="cls-2" d="M135.12,57.08c-.72,.31-1.35,.73-1.87,1.28-.53,.55-.94,1.21-1.23,1.99-.3,.78-.45,1.64-.45,2.58s.14,1.81,.43,2.59c.29,.78,.69,1.46,1.21,2.01,.52,.56,1.14,.99,1.86,1.29,.72,.3,1.53,.46,2.41,.46s1.71-.15,2.43-.46c.72-.3,1.34-.73,1.86-1.29,.52-.56,.91-1.23,1.19-2.01,.27-.78,.41-1.65,.41-2.59s-.15-1.81-.43-2.58c-.29-.78-.69-1.44-1.21-1.99-.52-.55-1.14-.97-1.86-1.28-.72-.3-1.52-.46-2.39-.46s-1.64,.15-2.37,.46Zm4.16,3.55c.42,.56,.63,1.32,.63,2.29s-.21,1.74-.63,2.31c-.42,.57-1.02,.85-1.79,.85s-1.38-.28-1.81-.85c-.43-.57-.64-1.34-.64-2.31s.21-1.73,.64-2.29c.43-.55,1.03-.83,1.81-.83s1.37,.28,1.79,.83Z"/>
    <path class="cls-2" d="M95.89,69.21h3.55v-5.36s1.78,1.44,4.1,5.36h4.26c-.27-.53-.61-1.11-1-1.74s-.84-1.28-1.31-1.91c-.47-.64-.97-1.26-1.48-1.85-.27-.31-.53-.61-.79-.87,.21-.22,.41-.45,.62-.69,.51-.6,1-1.22,1.48-1.85,.48-.64,.92-1.28,1.31-1.91s.73-1.22,1-1.74h-4.09c-.26,.41-.55,.87-.87,1.38-.32,.5-.67,1-1.03,1.51-.37,.5-.75,.98-1.16,1.45-.35,.4-.69,.74-1.04,1.03v-8.45h-3.55v15.68Z"/>
    <path class="cls-2" d="M120.11,69.15c.15-.44,.23-.9,.23-1.37v-11.15h-3.56v7.08s-1.36,0-1.36,0c-.08,0-.16,0-.24,0-.89-.03-1.53-.25-1.92-.66-.17-.18-.3-.37-.4-.58,0,0,0-.01,0-.01-.02-.05-.05-.11-.07-.16-.09-.25-.14-.52-.15-.81v-4.85s-3.54,0-3.54,0v5.71c0,.8,.23,1.6,.67,2.27,.19,.28,.39,.54,.63,.76,1.04,.99,2.64,1.49,4.81,1.49h.27c.76-.02,1.29-.11,1.34-.12v.17c0,.09,0,.18-.02,.26-.02,.2-.07,.38-.13,.55-.02,.05-.04,.11-.07,.16,0,0,0,.01,0,.01-.1,.22-.23,.41-.4,.58-.39,.41-1.03,.63-1.92,.66-.08,0-.16,0-.24,0h-4.21v3.14h4.9c1.93-.07,3.38-.56,4.35-1.48,.24-.23,.44-.48,.63-.76,.18-.28,.33-.58,.43-.9Z"/>
    <path class="cls-2" d="M126.08,53.56h-3.57v11.15c0,.8,.23,1.6,.67,2.27,.19,.28,.39,.54,.63,.76,.6,.57,1.39,.98,2.36,1.22,.57,.14,1.2,.23,1.89,.26,.18,.01,.37,.01,.56,.01h1.61v-3.16h-1.51s-.08,0-.12,0c-.89-.03-1.53-.25-1.92-.66-.17-.18-.3-.37-.4-.58,0,0,0-.01,0-.01-.02-.05-.05-.11-.07-.16-.06-.17-.11-.35-.13-.55-.01-.08-.02-.17-.02-.26v-4.05h4.17v-3.14h-4.16v-3.09Z"/>
  </g>
</svg>