<?xml version="1.0" encoding="utf-8"?>
<!-- Generator: Adobe Illustrator 27.0.0, SVG Export Plug-In . SVG Version: 6.00 Build 0)  -->
<svg version="1.1" id="Layer_1" xmlns="http://www.w3.org/2000/svg" xmlns:xlink="http://www.w3.org/1999/xlink" x="0px" y="0px"
	 viewBox="0 0 281.5 124.3" style="enable-background:new 0 0 281.5 124.3;" xml:space="preserve">
<style type="text/css">
	.st0{fill:#363636;}
	.st1{fill:url(#SVGID_1_);}
</style>
<g>
	<path class="st0" d="M97.5,57.42c-0.53,0.22-0.99,0.54-1.38,0.94s-0.69,0.89-0.91,1.46s-0.33,1.2-0.33,1.9s0.11,1.33,0.32,1.91
		c0.21,0.58,0.51,1.07,0.89,1.48s0.84,0.73,1.37,0.95s1.12,0.34,1.77,0.34s1.26-0.11,1.79-0.34c0.53-0.22,0.99-0.54,1.37-0.95
		s0.67-0.9,0.87-1.48s0.3-1.21,0.3-1.91s-0.11-1.33-0.32-1.9s-0.51-1.06-0.89-1.46s-0.84-0.72-1.37-0.94s-1.12-0.34-1.76-0.34
		s-1.21,0.11-1.74,0.34L97.5,57.42z M100.56,60.03c0.31,0.41,0.46,0.97,0.46,1.68s-0.15,1.28-0.46,1.7s-0.75,0.63-1.32,0.63
		s-1.01-0.21-1.33-0.63c-0.31-0.42-0.47-0.98-0.47-1.7s0.16-1.27,0.47-1.68s0.76-0.61,1.33-0.61S100.25,59.62,100.56,60.03z"/>
	<path class="st0" d="M68.66,66.33h2.61v-3.94c0,0,1.31,1.06,3.01,3.94h3.13c-0.2-0.39-0.45-0.81-0.74-1.28s-0.61-0.94-0.97-1.41
		c-0.35-0.47-0.71-0.92-1.09-1.36c-0.2-0.23-0.39-0.45-0.58-0.64c0.15-0.16,0.3-0.33,0.46-0.51c0.37-0.44,0.74-0.89,1.09-1.36
		s0.67-0.94,0.97-1.41s0.54-0.9,0.74-1.28h-3c-0.19,0.3-0.4,0.64-0.64,1.01s-0.49,0.74-0.76,1.11s-0.55,0.72-0.85,1.06
		c-0.25,0.29-0.51,0.54-0.76,0.76v-6.21h-2.61L68.66,66.33L68.66,66.33z"/>
	<path class="st0" d="M86.47,66.29c0.11-0.32,0.17-0.66,0.17-1.01v-8.19h-2.62v5.21h-1c-0.06,0-0.12,0-0.18,0
		c-0.66-0.02-1.13-0.19-1.41-0.49c-0.12-0.13-0.22-0.27-0.29-0.43c-0.02-0.04-0.03-0.08-0.05-0.12c-0.07-0.18-0.11-0.38-0.11-0.6
		V57.1h-2.6v4.2c0,0.59,0.17,1.17,0.49,1.67c0.14,0.21,0.29,0.39,0.46,0.56c0.76,0.73,1.94,1.09,3.54,1.1h0.2
		c0.56-0.02,0.95-0.08,0.98-0.09v0.12c0,0.07,0,0.13-0.01,0.19c-0.02,0.14-0.05,0.28-0.1,0.4c-0.02,0.04-0.03,0.08-0.05,0.12
		c-0.08,0.16-0.17,0.3-0.29,0.43c-0.28,0.3-0.75,0.46-1.41,0.49c-0.06,0-0.12,0-0.18,0h-3.09v2.31h3.6c1.42-0.05,2.49-0.41,3.2-1.09
		c0.17-0.17,0.33-0.35,0.46-0.56s0.24-0.43,0.32-0.66L86.47,66.29z"/>
	<path class="st0" d="M90.85,54.83h-2.62v8.19c0,0.59,0.17,1.17,0.49,1.67c0.14,0.21,0.29,0.39,0.46,0.56
		c0.44,0.42,1.02,0.72,1.74,0.9c0.42,0.11,0.88,0.17,1.39,0.19h0.41h1.18v-2.32h-1.11c0,0-0.06,0-0.09,0
		c-0.66-0.02-1.13-0.19-1.41-0.49c-0.12-0.13-0.22-0.27-0.29-0.43c-0.02-0.04-0.03-0.08-0.05-0.12c-0.05-0.13-0.08-0.26-0.1-0.4
		c0-0.06-0.01-0.13-0.02-0.19v-2.98h3.07V57.1h-3.05L90.85,54.83z"/>
</g>
<linearGradient id="SVGID_1_" gradientUnits="userSpaceOnUse" x1="107.36" y1="63.4" x2="213.84" y2="63.4" gradientTransform="matrix(1 0 0 -1 0 126)">
	<stop  offset="0" style="stop-color:#50CA82"/>
	<stop  offset="1" style="stop-color:#B2EC7C"/>
</linearGradient>
<path class="st1" d="M110.33,56.82c1.47,0,2.6,0.26,3.39,0.78s1.18,1.37,1.18,2.54s-0.4,2.04-1.2,2.57s-1.94,0.79-3.42,0.79h-0.7
	v3.31h-2.22v-9.73c0.48-0.09,1-0.16,1.54-0.2S109.92,56.82,110.33,56.82L110.33,56.82z M110.47,58.71c-0.16,0-0.32,0-0.48,0.01
	s-0.29,0.02-0.41,0.03v2.85h0.7c0.77,0,1.35-0.1,1.74-0.31s0.58-0.6,0.58-1.17c0-0.28-0.05-0.5-0.15-0.68s-0.24-0.33-0.43-0.43
	c-0.19-0.11-0.41-0.19-0.68-0.23s-0.56-0.06-0.88-0.06L110.47,58.71z M119.39,66.94c-0.62,0-1.12-0.08-1.5-0.2s-0.69-0.3-0.91-0.52
	s-0.38-0.49-0.46-0.81s-0.12-0.68-0.12-1.08v-8.25l2.12-0.34v8.16c0,0.19,0.01,0.36,0.04,0.51s0.08,0.28,0.16,0.38
	s0.2,0.19,0.35,0.26s0.36,0.11,0.61,0.13l-0.3,1.75L119.39,66.94z M123.81,59.1c0.63,0,1.15,0.07,1.57,0.21s0.75,0.35,1,0.61
	c0.25,0.27,0.43,0.59,0.53,0.97s0.16,0.8,0.16,1.27v4.42c-0.3,0.07-0.73,0.14-1.27,0.24c-0.54,0.09-1.2,0.14-1.97,0.14
	c-0.48,0-0.92-0.04-1.32-0.13c-0.39-0.09-0.73-0.23-1.02-0.42c-0.28-0.19-0.5-0.45-0.66-0.76c-0.15-0.31-0.23-0.7-0.23-1.15
	s0.09-0.81,0.26-1.11c0.18-0.3,0.41-0.55,0.71-0.73c0.29-0.18,0.63-0.31,1.01-0.39s0.77-0.12,1.18-0.12c0.28,0,0.52,0.01,0.73,0.04
	c0.21,0.02,0.39,0.05,0.52,0.09v-0.2c0-0.36-0.11-0.65-0.33-0.87s-0.6-0.33-1.14-0.33c-0.36,0-0.72,0.03-1.07,0.08
	s-0.66,0.13-0.91,0.22l-0.27-1.71c0.12-0.04,0.28-0.08,0.46-0.12c0.19-0.04,0.39-0.08,0.61-0.11s0.45-0.06,0.69-0.09
	c0.24-0.02,0.49-0.04,0.73-0.04L123.81,59.1z M123.98,65.31c0.21,0,0.41,0,0.6-0.01c0.19,0,0.34-0.02,0.46-0.04v-1.61
	c-0.09-0.02-0.21-0.04-0.38-0.06s-0.33-0.03-0.47-0.03c-0.2,0-0.39,0.01-0.56,0.04c-0.18,0.02-0.33,0.07-0.46,0.14
	s-0.24,0.16-0.31,0.27c-0.08,0.11-0.11,0.26-0.11,0.43c0,0.33,0.11,0.56,0.33,0.69s0.53,0.19,0.92,0.19L123.98,65.31z M128.92,57.43
	l2.12-0.34v2.21h2.55v1.77h-2.55v2.64c0,0.45,0.08,0.8,0.24,1.07s0.47,0.4,0.95,0.4c0.23,0,0.46-0.02,0.71-0.06
	c0.24-0.04,0.46-0.1,0.66-0.18l0.3,1.65c-0.26,0.1-0.54,0.19-0.85,0.27s-0.7,0.11-1.15,0.11c-0.58,0-1.06-0.08-1.44-0.23
	c-0.38-0.16-0.68-0.38-0.91-0.66s-0.39-0.62-0.48-1.02s-0.14-0.84-0.14-1.33v-6.3H128.92z M138.56,55.73c0.4,0,0.76,0.04,1.1,0.12
	c0.33,0.08,0.59,0.16,0.77,0.23l-0.41,1.7c-0.19-0.09-0.4-0.15-0.62-0.19s-0.43-0.06-0.62-0.06c-0.26,0-0.47,0.04-0.65,0.11
	s-0.31,0.17-0.41,0.29s-0.17,0.27-0.21,0.44s-0.06,0.36-0.06,0.56v0.37h2.62v1.77h-2.62v5.73h-2.12v-7.89
	c0-0.97,0.27-1.74,0.82-2.31s1.36-0.85,2.43-0.85L138.56,55.73z M148.22,63.02c0,0.59-0.09,1.13-0.26,1.62s-0.42,0.91-0.74,1.25
	c-0.32,0.35-0.71,0.62-1.16,0.81s-0.96,0.28-1.52,0.28s-1.05-0.1-1.5-0.28c-0.45-0.19-0.84-0.46-1.16-0.81s-0.57-0.76-0.76-1.25
	c-0.18-0.49-0.27-1.03-0.27-1.62s0.09-1.13,0.28-1.61s0.44-0.9,0.77-1.24s0.72-0.61,1.17-0.8s0.94-0.28,1.47-0.28
	s1.04,0.1,1.49,0.28c0.45,0.19,0.84,0.46,1.16,0.8s0.57,0.76,0.76,1.24C148.13,61.89,148.22,62.43,148.22,63.02z M146.05,63.02
	c0-0.66-0.13-1.17-0.39-1.55s-0.63-0.56-1.12-0.56s-0.86,0.19-1.13,0.56c-0.27,0.38-0.4,0.89-0.4,1.55s0.13,1.18,0.4,1.56
	s0.64,0.58,1.13,0.58s0.86-0.19,1.12-0.58C145.92,64.2,146.05,63.68,146.05,63.02z M154.37,61.17c-0.19-0.05-0.41-0.1-0.67-0.15
	s-0.53-0.08-0.83-0.08c-0.13,0-0.29,0.01-0.48,0.04c-0.19,0.02-0.33,0.05-0.42,0.08v5.73h-2.12v-7.1c0.38-0.13,0.83-0.26,1.35-0.38
	s1.09-0.18,1.73-0.18c0.11,0,0.25,0,0.41,0.02c0.16,0.01,0.32,0.03,0.48,0.06c0.16,0.02,0.32,0.05,0.48,0.09
	c0.16,0.03,0.3,0.07,0.41,0.12l-0.36,1.75L154.37,61.17z M159.98,62.81c0-0.68-0.09-1.17-0.26-1.45s-0.48-0.43-0.9-0.43
	c-0.13,0-0.27,0-0.41,0.02c-0.14,0.01-0.28,0.03-0.41,0.05v5.78h-2.12v-7.24c0.18-0.05,0.39-0.1,0.63-0.15s0.5-0.1,0.77-0.14
	s0.55-0.08,0.83-0.1s0.56-0.04,0.84-0.04c0.54,0,0.98,0.07,1.32,0.21s0.61,0.3,0.83,0.49c0.3-0.22,0.65-0.39,1.05-0.51
	c0.39-0.12,0.76-0.19,1.09-0.19c0.6,0,1.09,0.08,1.47,0.25s0.69,0.4,0.92,0.71c0.23,0.3,0.38,0.67,0.47,1.08
	c0.09,0.42,0.13,0.88,0.13,1.4v4.23h-2.12V62.8c0-0.68-0.09-1.17-0.26-1.45c-0.18-0.28-0.48-0.43-0.9-0.43
	c-0.11,0-0.27,0.03-0.48,0.09c-0.2,0.06-0.37,0.13-0.51,0.21c0.07,0.22,0.11,0.45,0.13,0.69s0.03,0.5,0.03,0.78v4.09H160V62.8
	L159.98,62.81z M169.29,66.79v-9.87h6.67v1.87h-4.45v1.94h3.95v1.82h-3.95v2.38h4.77v1.87h-7L169.29,66.79z M177.78,59.55
	c0.36-0.1,0.83-0.2,1.4-0.29s1.17-0.14,1.8-0.14s1.17,0.08,1.59,0.25s0.76,0.4,1,0.71c0.25,0.3,0.42,0.67,0.53,1.08
	c0.1,0.42,0.16,0.88,0.16,1.4v4.23h-2.12v-3.98c0-0.68-0.09-1.17-0.27-1.45s-0.52-0.43-1.01-0.43c-0.15,0-0.31,0-0.48,0.02
	c-0.17,0.01-0.32,0.03-0.46,0.05v5.78h-2.12v-7.24L177.78,59.55z M192.64,65.85c0,1.23-0.31,2.13-0.93,2.73
	c-0.62,0.59-1.58,0.89-2.89,0.89c-0.46,0-0.91-0.04-1.37-0.12s-0.88-0.19-1.27-0.32l0.37-1.78c0.33,0.13,0.68,0.24,1.05,0.31
	s0.78,0.11,1.25,0.11c0.61,0,1.04-0.13,1.29-0.4s0.38-0.61,0.38-1.03v-0.27c-0.23,0.1-0.46,0.18-0.71,0.24s-0.51,0.08-0.79,0.08
	c-1.04,0-1.83-0.31-2.38-0.92s-0.83-1.47-0.83-2.57c0-0.55,0.09-1.05,0.26-1.5s0.42-0.84,0.75-1.16s0.73-0.57,1.2-0.75
	s1.01-0.26,1.61-0.26c0.26,0,0.52,0.01,0.79,0.04c0.27,0.02,0.54,0.05,0.81,0.09s0.52,0.08,0.76,0.14c0.24,0.05,0.46,0.11,0.65,0.16
	v6.3L192.64,65.85z M187.98,62.8c0,1.19,0.48,1.78,1.44,1.78c0.22,0,0.42-0.03,0.61-0.09s0.35-0.12,0.48-0.2V60.9
	c-0.1-0.02-0.23-0.04-0.37-0.05s-0.31-0.02-0.5-0.02c-0.56,0-0.98,0.19-1.25,0.56C188.11,61.76,187.98,62.23,187.98,62.8
	L187.98,62.8z M196.96,57.13c0,0.39-0.13,0.7-0.38,0.92s-0.55,0.33-0.89,0.33s-0.64-0.11-0.89-0.33s-0.38-0.53-0.38-0.92
	s0.13-0.7,0.38-0.92s0.55-0.33,0.89-0.33s0.64,0.11,0.89,0.33S196.96,56.74,196.96,57.13z M196.76,66.79h-2.12V59.3h2.12V66.79z
	 M198.75,59.55c0.36-0.1,0.83-0.2,1.4-0.29s1.17-0.14,1.8-0.14s1.17,0.08,1.59,0.25s0.76,0.4,1,0.71c0.25,0.3,0.42,0.67,0.53,1.08
	c0.1,0.42,0.16,0.88,0.16,1.4v4.23h-2.12v-3.98c0-0.68-0.09-1.17-0.27-1.45s-0.52-0.43-1.01-0.43c-0.15,0-0.31,0-0.48,0.02
	c-0.17,0.01-0.32,0.03-0.46,0.05v5.78h-2.12v-7.24L198.75,59.55z M206.79,63.1c0-0.66,0.1-1.25,0.31-1.75
	c0.2-0.5,0.47-0.91,0.81-1.25c0.33-0.33,0.71-0.58,1.15-0.76c0.43-0.17,0.88-0.26,1.33-0.26c1.06,0,1.9,0.33,2.52,0.98
	s0.93,1.61,0.93,2.87c0,0.12,0,0.26-0.01,0.41c0,0.15-0.02,0.28-0.03,0.39h-4.82c0.05,0.44,0.25,0.78,0.61,1.04s0.85,0.38,1.45,0.38
	c0.39,0,0.77-0.04,1.15-0.11s0.68-0.16,0.92-0.26l0.28,1.72c-0.11,0.06-0.27,0.11-0.46,0.17s-0.4,0.11-0.63,0.15
	s-0.48,0.08-0.75,0.11s-0.53,0.04-0.8,0.04c-0.67,0-1.26-0.1-1.76-0.3s-0.91-0.47-1.24-0.82s-0.57-0.76-0.73-1.23
	s-0.23-0.99-0.23-1.54L206.79,63.1z M211.78,62.29c0-0.18-0.04-0.36-0.09-0.53s-0.13-0.32-0.24-0.46c-0.11-0.13-0.25-0.24-0.41-0.33
	c-0.17-0.09-0.37-0.13-0.62-0.13s-0.44,0.04-0.61,0.12s-0.31,0.19-0.43,0.32c-0.11,0.13-0.2,0.29-0.26,0.46
	c-0.06,0.18-0.11,0.35-0.14,0.53h2.81L211.78,62.29z"/>
</svg>
