<?xml version="1.0" encoding="UTF-8"?>
<svg id="Layer_1" data-name="Layer 1" xmlns="http://www.w3.org/2000/svg" xmlns:xlink="http://www.w3.org/1999/xlink" viewBox="0 0 281.5 124.3">
  <defs>
    <style>
      .cls-1 {
        fill: url(#linear-gradient);
      }

      .cls-2 {
        fill: #363636;
      }
    </style>
    <linearGradient id="linear-gradient" x1="101.87" y1="62.15" x2="215.79" y2="62.15" gradientUnits="userSpaceOnUse">
      <stop offset="0" stop-color="#8b38ff"/>
      <stop offset="1" stop-color="#bc65f7"/>
    </linearGradient>
  </defs>
  <g>
    <path class="cls-2" d="M93.1,58.18c-.51,.21-.94,.51-1.31,.89-.37,.38-.65,.85-.86,1.39-.21,.54-.31,1.14-.31,1.8s.1,1.26,.3,1.81c.2,.55,.48,1.02,.85,1.4,.36,.39,.79,.69,1.3,.9,.5,.21,1.07,.32,1.68,.32s1.19-.11,1.7-.32c.5-.21,.94-.51,1.3-.9,.36-.39,.64-.86,.83-1.4,.19-.55,.29-1.15,.29-1.81s-.1-1.26-.3-1.8c-.2-.54-.48-1.01-.85-1.39-.36-.38-.8-.68-1.3-.89-.51-.21-1.06-.32-1.67-.32s-1.15,.11-1.65,.32Zm2.9,2.47c.29,.39,.44,.92,.44,1.6s-.15,1.21-.44,1.61c-.29,.4-.71,.6-1.25,.6s-.96-.2-1.26-.6c-.3-.4-.45-.93-.45-1.61s.15-1.21,.45-1.6c.3-.39,.72-.58,1.26-.58s.96,.19,1.25,.58Z"/>
    <path class="cls-2" d="M65.71,66.65h2.48v-3.74s1.24,1.01,2.86,3.74h2.97c-.19-.37-.42-.77-.7-1.22s-.58-.89-.92-1.34c-.33-.44-.68-.88-1.03-1.29-.19-.22-.37-.42-.55-.61,.14-.15,.29-.31,.43-.48,.36-.42,.7-.85,1.03-1.29,.33-.44,.64-.89,.92-1.34s.51-.85,.7-1.22h-2.85c-.18,.29-.38,.61-.61,.96-.23,.35-.47,.7-.72,1.05-.26,.35-.52,.69-.81,1.01-.24,.28-.48,.52-.72,.72v-5.9h-2.48v10.94Z"/>
    <path class="cls-2" d="M82.62,66.61c.11-.31,.16-.63,.16-.96v-7.78h-2.49v4.94s-.95,0-.95,0c-.06,0-.11,0-.17,0-.62-.02-1.07-.18-1.34-.46-.12-.12-.21-.26-.28-.41,0,0,0,0,0,0-.02-.04-.03-.08-.05-.11-.06-.17-.1-.36-.11-.57v-3.38s-2.47,0-2.47,0v3.99c0,.56,.16,1.11,.47,1.58,.13,.2,.28,.37,.44,.53,.73,.69,1.85,1.04,3.36,1.04h.19c.53-.02,.9-.08,.93-.08v.12c0,.06,0,.12-.01,.18-.02,.14-.05,.26-.09,.38-.02,.04-.03,.08-.05,.11,0,0,0,0,0,0-.07,.15-.16,.28-.28,.41-.27,.28-.72,.44-1.34,.46-.06,0-.11,0-.17,0h-2.94v2.19h3.42c1.35-.05,2.36-.39,3.04-1.03,.16-.16,.31-.33,.44-.53,.13-.2,.23-.41,.3-.63Z"/>
    <path class="cls-2" d="M86.79,55.73h-2.49v7.78c0,.56,.16,1.11,.47,1.58,.13,.2,.28,.37,.44,.53,.42,.4,.97,.68,1.65,.85,.39,.1,.84,.16,1.32,.18,.13,0,.26,0,.39,0h1.12v-2.2h-1.05s-.05,0-.08,0c-.62-.02-1.07-.18-1.34-.46-.12-.12-.21-.26-.28-.41,0,0,0,0,0,0-.02-.04-.03-.08-.05-.11-.04-.12-.08-.25-.09-.38,0-.06-.01-.12-.02-.18v-2.83h2.91v-2.19h-2.9v-2.16Z"/>
  </g>
  <path class="cls-1" d="M110.21,57c.13,.43,.27,.92,.42,1.47,.15,.54,.32,1.11,.49,1.69,.17,.58,.35,1.16,.53,1.74,.18,.58,.35,1.12,.52,1.62,.14-.54,.28-1.13,.42-1.76,.14-.63,.28-1.29,.41-1.97,.13-.68,.25-1.35,.37-2.02,.12-.67,.24-1.32,.34-1.94h2.57c-.37,1.84-.8,3.71-1.28,5.6s-1.01,3.69-1.57,5.39h-2.26c-.37-1.01-.73-2.08-1.08-3.19-.35-1.12-.69-2.23-1.03-3.35-.34,1.12-.68,2.24-1.02,3.35s-.69,2.18-1.06,3.19h-2.26c-.56-1.7-1.09-3.5-1.57-5.39-.48-1.89-.91-3.76-1.28-5.6h2.68c.11,.62,.22,1.27,.35,1.94,.13,.67,.26,1.35,.4,2.02,.14,.68,.28,1.33,.42,1.97,.14,.63,.29,1.22,.44,1.76,.19-.52,.38-1.07,.56-1.65,.18-.58,.35-1.16,.52-1.74,.17-.58,.33-1.14,.47-1.68,.14-.54,.27-1.02,.39-1.44h2.11Zm6.57,5.71c0-.74,.11-1.39,.34-1.94,.23-.56,.53-1.02,.9-1.39s.8-.65,1.28-.84c.48-.19,.97-.29,1.48-.29,1.18,0,2.12,.36,2.81,1.09s1.03,1.79,1.03,3.19c0,.14,0,.29-.02,.45-.01,.16-.02,.31-.03,.44h-5.36c.05,.49,.28,.87,.68,1.16,.4,.29,.94,.43,1.62,.43,.43,0,.86-.04,1.28-.12s.76-.18,1.02-.29l.32,1.92c-.13,.06-.3,.13-.51,.19-.21,.06-.45,.12-.71,.17-.26,.05-.54,.09-.83,.12-.3,.03-.59,.05-.89,.05-.75,0-1.4-.11-1.96-.33-.56-.22-1.01-.53-1.38-.91-.36-.39-.63-.84-.81-1.37-.17-.53-.26-1.1-.26-1.71Zm5.55-.9c-.01-.2-.05-.4-.1-.59-.06-.19-.15-.36-.27-.51-.12-.15-.27-.27-.46-.36-.19-.1-.41-.14-.69-.14s-.49,.05-.68,.14c-.19,.09-.35,.21-.48,.36-.13,.15-.22,.32-.29,.52-.07,.2-.12,.39-.15,.59h3.12Zm11.86,.84c0,.67-.1,1.27-.29,1.81-.2,.54-.48,1-.85,1.38s-.82,.67-1.36,.88c-.54,.21-1.15,.31-1.84,.31-.29,0-.58-.01-.9-.04-.31-.03-.62-.06-.92-.1-.3-.04-.59-.09-.86-.15-.27-.06-.52-.12-.73-.18v-11.65l2.36-.38v4.15c.26-.12,.54-.21,.82-.27,.29-.06,.59-.1,.92-.1,.59,0,1.12,.1,1.57,.31,.45,.21,.83,.5,1.14,.88,.31,.38,.54,.84,.7,1.37,.16,.53,.24,1.13,.24,1.78Zm-2.41-.06c0-1.52-.56-2.28-1.68-2.28-.24,0-.48,.03-.72,.1-.24,.06-.43,.14-.58,.24v4.3c.12,.02,.26,.04,.44,.06s.38,.02,.59,.02c.64,0,1.13-.22,1.46-.67s.49-1.03,.49-1.76Zm6.63,2.54c.43,0,.74-.04,.92-.13s.27-.25,.27-.49c0-.19-.12-.36-.35-.5-.23-.14-.59-.3-1.06-.48-.37-.14-.71-.28-1.01-.43-.3-.15-.56-.33-.77-.53-.21-.21-.38-.45-.49-.74-.12-.29-.17-.63-.17-1.03,0-.78,.29-1.4,.87-1.86,.58-.45,1.38-.68,2.39-.68,.51,0,.99,.05,1.46,.13,.46,.09,.83,.19,1.11,.29l-.41,1.84c-.27-.1-.57-.18-.9-.25-.32-.07-.68-.11-1.09-.11-.74,0-1.11,.21-1.11,.62,0,.1,.02,.18,.05,.25,.03,.07,.1,.15,.19,.21,.1,.07,.22,.14,.39,.22,.16,.08,.37,.17,.63,.26,.52,.19,.95,.38,1.28,.57,.34,.19,.6,.39,.8,.6,.2,.22,.33,.46,.41,.72s.12,.57,.12,.92c0,.82-.31,1.45-.93,1.87-.62,.42-1.49,.63-2.62,.63-.74,0-1.36-.06-1.85-.19-.49-.13-.83-.23-1.02-.32l.4-1.92c.4,.16,.81,.28,1.24,.37,.42,.09,.84,.13,1.25,.13Zm7.88-9.05c0,.43-.14,.77-.42,1.02-.28,.25-.61,.37-.99,.37s-.71-.12-.99-.37c-.28-.25-.42-.59-.42-1.02s.14-.77,.42-1.02c.28-.25,.61-.37,.99-.37s.71,.12,.99,.37c.28,.25,.42,.59,.42,1.02Zm-.22,10.75h-2.36v-8.34h2.36v8.34Zm2.14-10.42l2.36-.38v2.46h2.84v1.97h-2.84v2.93c0,.5,.09,.89,.26,1.19s.53,.44,1.05,.44c.25,0,.52-.02,.78-.07,.27-.05,.52-.11,.74-.2l.33,1.84c-.29,.12-.6,.22-.95,.3-.35,.08-.78,.13-1.28,.13-.65,0-1.18-.09-1.6-.26-.42-.17-.76-.42-1.01-.73s-.43-.69-.53-1.13c-.1-.44-.15-.94-.15-1.47v-7.01Zm6.41,6.31c0-.74,.11-1.39,.34-1.94,.23-.56,.53-1.02,.9-1.39s.8-.65,1.28-.84c.48-.19,.97-.29,1.48-.29,1.18,0,2.12,.36,2.81,1.09s1.03,1.79,1.03,3.19c0,.14,0,.29-.02,.45-.01,.16-.02,.31-.03,.44h-5.36c.05,.49,.28,.87,.68,1.16,.4,.29,.94,.43,1.62,.43,.43,0,.86-.04,1.28-.12s.76-.18,1.02-.29l.32,1.92c-.13,.06-.3,.13-.51,.19-.21,.06-.45,.12-.71,.17-.26,.05-.54,.09-.83,.12-.3,.03-.59,.05-.89,.05-.75,0-1.4-.11-1.96-.33-.56-.22-1.01-.53-1.38-.91-.36-.39-.63-.84-.81-1.37-.17-.53-.26-1.1-.26-1.71Zm5.55-.9c-.01-.2-.05-.4-.1-.59s-.15-.36-.27-.51c-.12-.15-.27-.27-.46-.36-.18-.1-.41-.14-.69-.14s-.49,.05-.68,.14c-.19,.09-.35,.21-.48,.36-.13,.15-.22,.32-.29,.52-.07,.2-.12,.39-.15,.59h3.12Zm6.07,5.01v-10.99h7.42v2.08h-4.95v2.16h4.39v2.03h-4.39v2.65h5.31v2.08h-7.79Zm9.45-8.05c.4-.12,.92-.22,1.55-.32,.63-.1,1.3-.15,2-.15s1.3,.09,1.77,.28c.47,.18,.84,.45,1.12,.78,.27,.34,.47,.74,.59,1.2,.12,.47,.17,.98,.17,1.55v4.71h-2.36v-4.42c0-.76-.1-1.3-.3-1.62-.2-.32-.58-.48-1.13-.48-.17,0-.35,0-.54,.02-.19,.02-.36,.03-.51,.06v6.44h-2.36v-8.05Zm16.54,7.01c0,1.36-.35,2.38-1.04,3.04-.69,.66-1.76,.99-3.21,.99-.51,0-1.01-.05-1.52-.13-.51-.09-.98-.21-1.41-.36l.41-1.98c.37,.15,.76,.26,1.17,.35s.87,.13,1.39,.13c.68,0,1.15-.15,1.43-.44,.28-.3,.42-.68,.42-1.14v-.3c-.25,.12-.52,.2-.78,.26s-.56,.09-.88,.09c-1.15,0-2.03-.34-2.65-1.02-.61-.68-.92-1.64-.92-2.86,0-.61,.1-1.17,.29-1.67,.19-.5,.47-.93,.83-1.29,.36-.36,.81-.64,1.34-.83,.53-.2,1.13-.29,1.79-.29,.29,0,.58,.01,.88,.04,.3,.03,.6,.06,.9,.1,.3,.04,.58,.09,.85,.15,.27,.06,.51,.12,.72,.18v7.01Zm-5.18-3.39c0,1.32,.53,1.98,1.6,1.98,.24,0,.47-.03,.68-.1,.21-.06,.39-.14,.54-.22v-3.77c-.12-.02-.25-.04-.41-.06-.16-.02-.34-.02-.56-.02-.62,0-1.09,.21-1.39,.62-.31,.41-.46,.94-.46,1.57Zm9.99-6.31c0,.43-.14,.77-.42,1.02-.28,.25-.61,.37-.99,.37s-.71-.12-.99-.37c-.28-.25-.42-.59-.42-1.02s.14-.77,.42-1.02c.28-.25,.61-.37,.99-.37s.71,.12,.99,.37c.28,.25,.42,.59,.42,1.02Zm-.22,10.75h-2.36v-8.34h2.36v8.34Zm2.22-8.05c.4-.12,.92-.22,1.55-.32,.63-.1,1.3-.15,2-.15s1.3,.09,1.77,.28c.47,.18,.84,.45,1.12,.78,.27,.34,.47,.74,.59,1.2,.12,.47,.17,.98,.17,1.55v4.71h-2.36v-4.42c0-.76-.1-1.3-.3-1.62-.2-.32-.58-.48-1.13-.48-.17,0-.35,0-.54,.02-.19,.02-.36,.03-.51,.06v6.44h-2.36v-8.05Zm8.94,3.95c0-.74,.11-1.39,.34-1.94,.23-.56,.53-1.02,.9-1.39s.8-.65,1.28-.84c.48-.19,.97-.29,1.48-.29,1.18,0,2.12,.36,2.81,1.09s1.03,1.79,1.03,3.19c0,.14,0,.29-.02,.45-.01,.16-.02,.31-.03,.44h-5.36c.05,.49,.28,.87,.68,1.16,.4,.29,.94,.43,1.62,.43,.43,0,.86-.04,1.28-.12s.76-.18,1.02-.29l.32,1.92c-.13,.06-.3,.13-.51,.19-.21,.06-.45,.12-.71,.17-.26,.05-.54,.09-.83,.12-.3,.03-.59,.05-.89,.05-.75,0-1.4-.11-1.96-.33-.56-.22-1.01-.53-1.38-.91-.36-.39-.63-.84-.81-1.37-.17-.53-.26-1.1-.26-1.71Zm5.55-.9c-.01-.2-.05-.4-.1-.59s-.15-.36-.27-.51c-.12-.15-.27-.27-.46-.36-.18-.1-.41-.14-.69-.14s-.49,.05-.68,.14c-.19,.09-.35,.21-.48,.36-.13,.15-.22,.32-.29,.52-.07,.2-.12,.39-.15,.59h3.12Z"/>
</svg>