<?xml version="1.0" encoding="UTF-8"?>
<svg id="Layer_1" data-name="Layer 1" xmlns="http://www.w3.org/2000/svg" xmlns:xlink="http://www.w3.org/1999/xlink" viewBox="0 0 281.5 124.3">
  <defs>
    <style>
      .cls-1 {
        fill: url(#linear-gradient);
      }

      .cls-2 {
        fill: #363636;
      }
    </style>
    <linearGradient id="linear-gradient" x1="106.29" y1="74.9" x2="106.29" y2="49.49" gradientUnits="userSpaceOnUse">
      <stop offset="0" stop-color="#f4a125"/>
      <stop offset="1" stop-color="#f27237"/>
    </linearGradient>
  </defs>
  <path class="cls-1" d="M112.33,71.94c-.08,.16-.24,.32-.5,.45l-1.64,.81-2.58,1.28c-.74,.37-1.95,.37-2.69,0l-2.56-1.28-1.62-.81c-.27-.13-.44-.3-.51-.47-.13-.31,.04-.64,.51-.88l2.27-1.14,1.89,.95c.74,.37,1.95,.37,2.69,0l1.91-.96h0l2.31,1.15c.48,.24,.65,.58,.5,.89Zm3.49-8.61s0-.05,0-.08-.01-.05-.02-.08h0s-.03-.06-.04-.09c-.08-.15-.24-.28-.46-.4l-2.25-1.12-2.62,1.3-.38,.19-2.41,1.2c-.74,.37-1.95,.37-2.69,0l-2.43-1.21-.35-.17-2.65-1.32-2.27,1.13c-.32,.16-.5,.37-.54,.58,0,.03,0,.06,0,.09,0,.24,.19,.49,.55,.67l1.63,.82,4.02,2.02,2.01,1.01c.74,.37,1.95,.37,2.69,0l2.01-1.01,4.04-2.02,1.63-.82c.35-.17,.53-.4,.55-.62v-.04s0-.02,0-.04Zm3.45-8.27c.03-.26-.15-.52-.54-.72l-11.1-5.55c-.74-.37-1.95-.37-2.69,0l-11.08,5.55c-.33,.17-.51,.38-.54,.6,0,.03,0,.06,0,.09,0,.24,.19,.48,.55,.66l1.7,.85,4.15,2.07,2.85,1.42,2.37,1.18c.74,.37,1.96,.37,2.69,0l2.34-1.16,2.89-1.44,4.16-2.07,1.7-.85c.33-.16,.51-.37,.55-.58v-.04s0,0,0,0Z"/>
  <g>
    <path class="cls-2" d="M177.35,55.79c-.95,.4-1.77,.96-2.46,1.68-.69,.72-1.23,1.59-1.62,2.61-.39,1.02-.59,2.15-.59,3.39s.19,2.38,.57,3.41c.38,1.03,.91,1.91,1.59,2.64,.68,.73,1.5,1.3,2.45,1.7,.95,.4,2.01,.6,3.17,.6s2.25-.2,3.2-.6c.95-.4,1.77-.97,2.45-1.7,.68-.73,1.2-1.61,1.56-2.64,.36-1.03,.54-2.17,.54-3.41s-.19-2.37-.57-3.39c-.38-1.02-.91-1.89-1.59-2.61-.68-.72-1.5-1.28-2.45-1.68-.95-.4-2-.6-3.14-.6s-2.16,.2-3.11,.6Zm5.46,4.66c.55,.73,.83,1.73,.83,3s-.28,2.28-.83,3.03c-.55,.75-1.34,1.12-2.36,1.12s-1.81-.37-2.37-1.12c-.56-.75-.84-1.76-.84-3.03s.28-2.27,.84-3c.56-.73,1.35-1.09,2.37-1.09s1.81,.36,2.36,1.09Z"/>
    <path class="cls-2" d="M125.8,71.73h4.67v-7.04s2.34,1.89,5.39,7.04h5.59c-.36-.69-.8-1.46-1.32-2.29s-1.1-1.68-1.73-2.51c-.62-.84-1.27-1.65-1.94-2.43-.35-.41-.69-.8-1.04-1.15,.27-.28,.54-.59,.81-.91,.67-.78,1.32-1.6,1.94-2.43,.63-.84,1.2-1.68,1.73-2.51s.96-1.6,1.32-2.29h-5.37c-.34,.54-.72,1.15-1.15,1.81-.42,.66-.88,1.32-1.36,1.98-.48,.66-.99,1.29-1.52,1.9-.46,.52-.91,.97-1.36,1.35v-11.11h-4.67v20.6Z"/>
    <path class="cls-2" d="M157.63,71.66c.2-.58,.3-1.19,.3-1.8v-14.65h-4.68l.02,9.31h-1.81c-.11,0-.21,0-.31,0-1.17-.04-2.01-.33-2.52-.87-.22-.23-.39-.48-.52-.77,0,0,0-.01,0-.02-.03-.07-.06-.14-.09-.21-.12-.32-.19-.68-.2-1.07v-6.37s-4.66,0-4.66,0v7.5c0,1.05,.3,2.1,.88,2.98,.24,.37,.52,.7,.83,1,1.37,1.3,3.47,1.96,6.32,1.96h.35c1-.03,1.69-.14,1.76-.15v.22c0,.12,0,.23-.03,.35-.03,.26-.09,.5-.17,.72-.03,.07-.06,.15-.09,.21,0,0,0,.01,0,.02-.14,.28-.31,.54-.52,.77-.51,.54-1.35,.83-2.52,.87-.11,0-.21,0-.32,0h-5.53v4.13h6.43c2.54-.09,4.45-.74,5.71-1.95,.31-.3,.58-.63,.83-1,.24-.37,.43-.77,.57-1.18Z"/>
    <path class="cls-2" d="M165.47,51.17h-4.69v14.65c0,1.05,.3,2.1,.88,2.98,.24,.37,.52,.7,.83,1,.79,.75,1.82,1.29,3.11,1.6,.74,.19,1.58,.31,2.49,.34,.24,.01,.48,.02,.73,.02l2.11-.02v-4.13h-1.98c-.05,0-.1,0-.15,0-1.17-.04-2.01-.33-2.52-.87-.22-.23-.39-.48-.52-.77,0,0,0-.01,0-.02-.03-.07-.06-.14-.09-.21-.08-.23-.14-.46-.17-.72-.02-.11-.03-.23-.03-.35v-5.32h5.48v-4.13h-5.46v-4.06Z"/>
  </g>
</svg>