<?xml version="1.0" encoding="UTF-8"?>
<svg id="Layer_1" data-name="Layer 1" xmlns="http://www.w3.org/2000/svg" xmlns:xlink="http://www.w3.org/1999/xlink" viewBox="0 0 281.5 124.3">
  <defs>
    <style>
      .cls-1 {
        fill: url(#linear-gradient);
      }

      .cls-2 {
        fill: #363636;
      }
    </style>
    <linearGradient id="linear-gradient" x1="139.38" y1="61.33" x2="190.33" y2="61.33" gradientUnits="userSpaceOnUse">
      <stop offset="0" stop-color="#8b38ff"/>
      <stop offset="1" stop-color="#bc65f7"/>
    </linearGradient>
  </defs>
  <g>
    <path d="M139.38,69.21v-15.75h10.54v2.98h-7v3.29h6.23v2.98h-6.23v6.5h-3.54Z"/>
    <g>
      <path class="cls-1" d="M171.63,57.14c-.26-.06-.52-.1-.78-.14-.26-.04-.52-.07-.78-.09-.26-.02-.48-.04-.66-.04-1.02,0-1.94,.1-2.78,.29-.83,.19-1.55,.39-2.16,.61v11.38h3.4v-9.18c.15-.05,.38-.09,.67-.13,.3-.04,.55-.06,.77-.06,.47,0,.91,.04,1.32,.12,.41,.08,.77,.17,1.07,.24l.57-2.81c-.18-.08-.4-.14-.66-.19Z"/>
      <path class="cls-1" d="M190.13,60.12c-.13-.67-.39-1.25-.75-1.73-.36-.49-.86-.86-1.47-1.13-.62-.27-1.41-.4-2.36-.4-.53,0-1.12,.1-1.75,.3-.63,.2-1.19,.48-1.68,.82-.35-.3-.8-.57-1.33-.79-.54-.22-1.25-.33-2.12-.33-.44,0-.89,.02-1.35,.06-.46,.04-.9,.09-1.33,.16-.44,.07-.85,.15-1.24,.23-.39,.08-.72,.16-1.01,.24v11.61h3.4v-9.27c.21-.03,.43-.06,.66-.08,.23-.02,.45-.03,.66-.03,.69,0,1.17,.23,1.45,.69,.28,.46,.42,1.23,.42,2.33v6.37h3.41v-6.56c0-.44-.02-.86-.05-1.24-.03-.39-.1-.76-.21-1.11,.21-.14,.48-.25,.81-.34,.33-.09,.58-.13,.76-.13,.69,0,1.17,.23,1.45,.69,.28,.46,.42,1.23,.42,2.33v6.37h3.4v-6.79c0-.82-.07-1.57-.21-2.24Z"/>
      <path class="cls-1" d="M154.5,57.53c-.69,.29-1.29,.7-1.79,1.22-.5,.52-.89,1.16-1.18,1.9-.28,.74-.43,1.56-.43,2.46s.14,1.73,.41,2.48c.28,.75,.66,1.39,1.16,1.92,.49,.53,1.09,.94,1.78,1.23,.69,.29,1.46,.44,2.3,.44s1.63-.15,2.32-.44c.69-.29,1.28-.7,1.78-1.23,.49-.53,.87-1.17,1.13-1.92,.26-.75,.39-1.57,.39-2.48s-.14-1.72-.41-2.46c-.28-.74-.66-1.37-1.16-1.9-.49-.52-1.09-.93-1.78-1.22-.69-.29-1.45-.44-2.28-.44s-1.57,.15-2.26,.44Zm3.97,3.38c.4,.53,.6,1.26,.6,2.18s-.2,1.66-.6,2.2c-.4,.54-.97,.81-1.71,.81s-1.32-.27-1.72-.81c-.41-.54-.61-1.28-.61-2.2s.2-1.65,.61-2.18c.41-.53,.98-.79,1.72-.79s1.31,.26,1.71,.79Z"/>
      <path class="cls-1" d="M139.38,69.21v-15.75h10.54v2.98h-7v3.29h6.23v2.98h-6.23v6.5h-3.54Z"/>
    </g>
  </g>
  <g>
    <path class="cls-2" d="M128.61,57.69c-.69,.29-1.29,.7-1.79,1.22-.5,.52-.89,1.16-1.18,1.9-.28,.74-.43,1.56-.43,2.46s.14,1.73,.41,2.48c.28,.75,.66,1.39,1.16,1.92,.49,.53,1.09,.94,1.78,1.23,.69,.29,1.46,.44,2.3,.44s1.63-.15,2.32-.44c.69-.29,1.28-.7,1.78-1.23,.49-.53,.87-1.17,1.13-1.92,.26-.75,.39-1.57,.39-2.48s-.14-1.72-.41-2.46c-.28-.74-.66-1.37-1.16-1.9-.49-.52-1.09-.93-1.78-1.22-.69-.29-1.45-.44-2.28-.44s-1.57,.15-2.26,.44Zm3.97,3.38c.4,.53,.6,1.26,.6,2.18s-.2,1.66-.6,2.2c-.4,.54-.97,.81-1.71,.81s-1.32-.27-1.72-.81c-.41-.54-.61-1.28-.61-2.2s.2-1.65,.61-2.18c.41-.53,.98-.79,1.72-.79s1.31,.26,1.71,.79Z"/>
    <path class="cls-2" d="M91.17,69.26h3.39v-5.12s1.7,1.38,3.91,5.12h4.06c-.26-.5-.58-1.06-.96-1.66s-.8-1.22-1.25-1.83c-.45-.61-.93-1.2-1.41-1.77-.25-.3-.5-.58-.75-.83,.2-.21,.39-.43,.59-.66,.49-.57,.96-1.16,1.41-1.77,.46-.61,.87-1.22,1.25-1.83s.7-1.16,.96-1.66h-3.9c-.24,.4-.52,.83-.83,1.31-.31,.48-.64,.96-.99,1.44-.35,.48-.72,.94-1.1,1.38-.33,.38-.66,.71-.99,.98v-8.07h-3.39v14.96Z"/>
    <path class="cls-2" d="M114.28,69.21c.14-.42,.22-.86,.22-1.31v-10.64h-3.4v6.76s-1.3,0-1.3,0c-.08,0-.15,0-.23,0-.85-.03-1.46-.24-1.83-.63-.16-.17-.28-.35-.38-.56,0,0,0,0,0-.01-.02-.05-.04-.1-.06-.15-.09-.23-.14-.49-.15-.77v-4.62s-3.38,0-3.38,0v5.45c0,.76,.22,1.52,.64,2.17,.18,.27,.38,.51,.6,.73,.99,.94,2.52,1.42,4.59,1.42h.25c.72-.02,1.23-.1,1.28-.11v.16c0,.09,0,.17-.02,.25-.02,.19-.07,.36-.13,.52-.02,.05-.04,.11-.06,.15,0,0,0,0,0,.01-.1,.21-.22,.39-.38,.56-.37,.39-.98,.6-1.83,.63-.08,0-.15,0-.23,0h-4.02v3h4.67c1.84-.06,3.23-.54,4.15-1.41,.23-.22,.42-.46,.6-.73,.17-.27,.31-.56,.41-.86Z"/>
    <path class="cls-2" d="M119.98,54.33h-3.4v10.64c0,.76,.22,1.52,.64,2.17,.18,.27,.38,.51,.6,.73,.57,.55,1.32,.94,2.26,1.16,.54,.14,1.14,.22,1.81,.25,.17,0,.35,.01,.53,.01h1.53v-3.01h-1.44s-.07,0-.11,0c-.85-.03-1.46-.24-1.83-.63-.16-.17-.28-.35-.38-.56,0,0,0,0,0-.01-.02-.05-.04-.1-.06-.15-.06-.16-.1-.34-.13-.52-.01-.08-.02-.16-.02-.25v-3.87h3.98v-3h-3.97v-2.95Z"/>
  </g>
</svg>