<?xml version="1.0" encoding="UTF-8"?><svg id="a" xmlns="http://www.w3.org/2000/svg" width="149.66" height="65.62" viewBox="0 0 149.66 65.62"><defs><style>.b{fill-rule:evenodd;}</style></defs><polygon points="69.85 65.62 69.85 6.08 90.27 40.35 90.27 65.62 69.85 65.62"/><polygon points="69.9 0 93.14 0 110.75 29.18 124.59 5.44 124.59 38.47 108.82 65.62 69.9 0"/><rect x="127.81" width="21.86" height="65.62"/><path class="b" d="M47.77,32.49l-47.77-.34V.02H33.63l.08,.03c6.29,.05,11.22,1.76,14.83,5.08,3.7,3.41,5.56,8.15,5.56,14.23,0,3.43-.79,6.37-2.31,8.86-1.03,1.65-2.37,3.08-4.02,4.27Z"/><path class="b" d="M57.42,64.68v.94H0v-30.48l47.99,.34c1.88,1.1,3.33,2.55,4.35,4.35,1.49,2.65,2.25,5.95,2.25,9.91v4.66c0,1.78,.21,3.72,.63,5.79,.42,2.04,1.15,3.54,2.2,4.48h0Z"/></svg>