<?xml version="1.0" encoding="UTF-8"?><svg id="a" xmlns="http://www.w3.org/2000/svg" width="9.2mm" height="7.47mm" viewBox="0 0 26.07 21.18"><path d="M26.07,2.51c-.96,.43-1.99,.71-3.07,.84,1.1-.66,1.95-1.71,2.35-2.96-1.03,.61-2.18,1.06-3.4,1.3-.98-1.04-2.37-1.69-3.9-1.69-2.95,0-5.35,2.39-5.35,5.35,0,.42,.05,.83,.14,1.22C8.39,6.34,4.45,4.21,1.82,.98c-.46,.79-.72,1.71-.72,2.69,0,1.86,.94,3.49,2.38,4.45-.88-.03-1.7-.27-2.42-.67,0,.02,0,.04,0,.07,0,2.59,1.84,4.75,4.29,5.24-.45,.12-.92,.19-1.41,.19-.35,0-.68-.03-1.01-.1,.68,2.12,2.66,3.67,5,3.71-1.83,1.43-4.14,2.29-6.64,2.29-.43,0-.86-.03-1.28-.08,2.37,1.52,5.18,2.4,8.2,2.4,9.84,0,15.22-8.15,15.22-15.22,0-.23,0-.46-.01-.69,1.04-.75,1.95-1.69,2.67-2.77Z"/></svg>